<?xml version="1.0" encoding="UTF-8" standalone="no"?>
<svg width="210mm" height="297mm" viewBox="0 0 210 297" version="1.1" id="svg5" xml:space="preserve"
    xmlns="http://www.w3.org/2000/svg" xmlns:svg="http://www.w3.org/2000/svg"><defs
     id="defs2" />
    <g id="layer1"><g
       id="g5615"
       transform="matrix(0.69012322,0,0,0.70446936,-14.499583,-3.6671612)"><circle
         style="fill:#061860;fill-opacity:1;fill-rule:evenodd;stroke-width:0.352365"
         id="path518"
         cx="172.653"
         cy="210.4068"
         r="150" /><path style="fill:#ff6600;fill-opacity:1;stroke:none;stroke-width:0.19413"
        d="m 128.93843,191.46175 c 3.70361,-0.8331 7.73825,-4.01256 11.10819,-5.75836 0.98229,-0.50881 3.17534,-1.26835 3.64925,-2.28366 0.62066,-1.32992 0.11959,-3.80681 0.11959,-5.25716 v -12.53921 -43.88732 c 0,-6.08381 0.3967,-12.15678 0.3967,-18.23888 0,-1.78171 0.86366,-5.047804 -0.63971,-6.384744 -0.82042,-0.72956 -2.14011,-0.81676 -3.12912,-0.37105 -3.24319,1.46196 -6.04404,3.342464 -9.52131,4.410594 -7.9015,2.42708 -18.35429,2.69593 -20.88043,11.84462 -0.35862,1.29819 -0.57861,2.83558 -0.53397,4.17973 0.0785,2.35567 0.54726,4.73964 1.113,7.02958 1.62457,6.57531 4.44426,12.88444 6.92695,19.18881 4.01581,10.19742 7.9963,20.55978 9.88607,31.34807 0.73375,4.19 1.48354,8.47616 1.50498,12.7292 0.007,1.36605 0.337,2.63346 -2.1e-4,3.98978 m 0,-23.74854 c -0.93824,-1.47126 -1.16436,-3.65899 -1.67098,-5.31967 -1.01381,-3.32307 -2.20735,-6.5964 -3.35409,-9.8794 -3.32034,-9.50587 -8.89052,-19.50915 -9.63594,-29.63816 -0.38621,-5.25035 0.15705,-12.19782 6.92495,-13.1869 1.04417,-0.15258 2.18594,-0.007 3.17378,0.3566 5.11116,1.88887 4.5621,10.08646 4.56228,14.35019 v 43.31734 m 14.87705,26.02839 c -3.89401,1.35709 -7.85427,3.90028 -11.30656,6.07963 -1.01719,0.64216 -2.98195,1.44581 -3.30905,2.66175 -0.35289,1.31281 -0.0631,3.01511 -0.0631,4.36782 0,2.97331 -0.19836,5.94664 -0.19836,8.92945 0,1.83909 0.28941,3.92516 -0.26679,5.69964 -0.8942,2.85363 -2.34205,5.78705 -5.68403,6.52041 -7.15842,1.57121 -8.50093,-8.50198 -7.35957,-12.98002 2.41822,-9.48991 11.93753,-15.65293 20.25301,-20.21872 2.93356,-1.61093 6.50781,-4.57871 9.91801,-3.58283 6.90812,2.01714 10.87949,7.234 14.87701,12.59226 3.5897,4.81241 7.22405,9.59252 10.76696,14.43913 6.34417,8.68055 12.48282,16.71894 24.54117,16.71894 v 0.18998 c -7.58589,3.43692 -13.88265,10.50067 -19.63472,16.14904 -2.25894,2.21715 -4.39627,4.6262 -7.14393,6.3266 -2.75086,1.70231 -5.80124,2.35775 -8.92618,3.10252 -1.79062,0.42556 -3.82201,0.84923 -4.77651,2.54203 -1.89552,3.3628 1.8148,6.4254 4.57814,7.74012 5.92976,2.82133 14.07382,2.21717 20.03436,-0.22419 2.88951,-1.18363 5.69454,-2.72822 7.93424,-4.858 0.92475,-0.87965 1.98219,-1.85998 1.7394,-3.22979 -0.29874,-1.6852 -3.69447,-2.21529 -4.83563,-3.60979 -3.27215,-3.99926 -0.37074,-9.31513 2.55866,-12.53922 3.36002,-3.69907 7.92865,-6.43681 12.24103,-9.00926 9.16623,-5.46787 19.29651,-9.79199 27.77046,-16.2592 8.0356,-6.13469 13.94674,-13.76085 13.48059,-23.93851 -0.0694,-1.53891 -0.50384,-3.1371 -1.10289,-4.55972 -4.3064,-10.20391 -16.14058,-6.47957 -24.87441,-5.90656 -2.25734,0.14797 -4.49485,-0.14826 -6.74425,-0.17384 -3.5705,-0.0406 -7.13702,-0.71777 -10.71146,-0.75844 -1.27744,-0.0153 -2.97344,-0.25382 -3.75102,0.95964 -0.64267,1.00276 -0.46613,2.56447 0.59904,3.24634 0.98587,0.63074 2.61044,0.57395 3.74704,0.85265 2.87029,0.70372 5.23276,2.16358 6.48441,4.82002 1.54523,3.28603 1.29728,7.13596 1.45796,10.63935 0.30547,6.69708 0.19044,13.42647 0.19044,20.13876 3.8938,-1.35652 7.85506,-3.90047 11.30655,-6.07963 1.01757,-0.64215 2.98134,-1.44582 3.30866,-2.66174 0.35305,-1.3128 0.0636,-3.01512 0.0636,-4.36785 0,-2.97331 0.19838,-5.94661 0.19838,-8.92943 0,-1.83909 -0.28962,-3.92517 0.2658,-5.69966 0.8946,-2.85324 2.34264,-5.78705 5.68502,-6.5202 7.15882,-1.57082 8.50173,8.49989 7.35917,12.97983 -2.418,9.48989 -11.93733,15.65311 -20.25261,20.21855 -2.86236,1.5712 -6.52607,4.57111 -9.91804,3.58317 -7.09337,-2.06897 -11.03083,-7.51974 -15.1597,-12.97239 -4.29073,-5.66545 -8.47417,-11.4031 -12.72562,-17.09897 -3.01686,-4.042 -6.01784,-8.31198 -10.5966,-10.88442 -4.05626,-2.27911 -8.48661,-2.79473 -13.09173,-2.79473 4.86739,-2.85324 9.72814,-5.51404 13.85146,-9.36376 4.64815,-4.33952 8.82603,-9.90503 14.31564,-13.30203 2.86831,-1.77487 6.06905,-2.414 9.32296,-3.19673 1.79516,-0.43205 3.83233,-0.99194 4.56428,-2.8259 1.74359,-4.37067 -3.97832,-7.48117 -7.53968,-8.38134 -8.11196,-2.05035 -17.52675,-0.0562 -24.0016,5.0499 -1.30203,1.02669 -3.80393,2.95735 -2.74152,4.84108 0.57684,1.02271 2.00125,0.9718 2.93988,1.52941 1.99747,1.18628 3.10572,3.48515 3.10632,5.7006 0.003,6.45884 -6.59388,11.24636 -11.63577,14.5018 -11.4587,7.39871 -24.72386,12.56565 -35.1098,21.39649 -5.32182,4.52551 -10.18821,10.61655 -10.69382,17.67841 -0.14244,1.99108 -0.12978,4.12655 0.31202,6.07963 0.31459,1.3907 0.80079,2.75104 1.54067,3.98976 5.77962,9.6761 18.78732,3.79027 27.88374,4.38681 4.21495,0.27548 8.49955,0.4047 12.69507,0.87776 1.41807,0.16149 3.87695,0.44457 4.74297,-0.90435 0.64349,-1.00314 0.46636,-2.56485 -0.59884,-3.2469 -0.98547,-0.63076 -2.61042,-0.57376 -3.74741,-0.85306 -2.87127,-0.70295 -5.23356,-2.16395 -6.48382,-4.81999 -1.54661,-3.28679 -1.29826,-7.13597 -1.45835,-10.63935 -0.30626,-6.69708 -0.19063,-13.42647 -0.19063,-20.13876 m 25.19162,-26.78833 h -0.19835 c 0,-3.91738 -0.82873,-7.00031 -4.56227,-9.11946 v -0.37997 c 1.30223,-0.40582 2.59296,-0.9203 3.96717,-1.05101 0.60145,-0.0573 1.20586,0.0359 1.78526,0.19493 5.26328,1.4441 0.75535,8.01902 -0.99181,10.35551 m 26.38196,57.18647 -0.19835,0.18999 0.19835,-0.18999 m 25.78687,4.7497 c -3.70339,0.83406 -7.73804,4.01255 -11.10819,5.75854 -0.98188,0.50917 -3.17575,1.26724 -3.64983,2.28368 -0.62088,1.3299 -0.11911,3.80736 -0.11911,5.25696 v 12.53924 43.88728 c 0,6.08344 -0.39671,12.15738 -0.39671,18.23889 0,1.78209 -0.86287,5.04799 0.6387,6.38551 0.82123,0.72956 2.14031,0.81697 3.13014,0.37048 3.24319,-1.4629 6.04406,-3.3419 9.5213,-4.41151 7.90072,-2.42617 18.35431,-2.69594 20.88143,-11.84389 0.35705,-1.29762 0.57721,-2.83652 0.53358,-4.17976 -0.0793,-2.35583 -0.54748,-4.74019 -1.11281,-7.02956 -1.62455,-6.57549 -4.44523,-12.885 -6.92674,-19.18882 -4.01679,-10.19666 -7.99788,-20.56053 -9.8863,-31.34806 -0.73393,-4.18925 -1.48373,-8.47537 -1.50557,-12.72921 -0.009,-1.36602 -0.33721,-2.63326 0,-3.98977 m 0.19839,23.74854 c 3.05276,14.16174 10.50318,27.13033 13.81582,41.22748 1.1941,5.08409 1.98557,13.07309 -3.69945,16.05019 -0.74384,0.38949 -1.5492,0.58329 -2.38031,0.71627 -5.85363,0.92524 -7.2739,-4.66231 -7.70234,-8.97695 -1.12868,-11.35371 -0.23211,-23.16908 -0.23211,-34.57788 v -9.87939 c 0,-1.37172 -0.35703,-3.29058 0.19839,-4.55972 m -40.06884,0.75995 c 0,3.91757 0.82876,7.0011 4.5623,9.11944 v 0.37999 c -2.01733,0.62886 -4.25881,1.62059 -6.34734,0.65165 -4.11678,-1.91127 -0.47607,-8.22839 1.78504,-10.15108 z"
        id="path302" /></g></g></svg>