<?xml version="1.0" encoding="UTF-8" standalone="no"?>
<svg width="210mm" height="297mm" viewBox="0 0 210 297" version="1.1" id="svg5" xml:space="preserve"
    xmlns="http://www.w3.org/2000/svg" xmlns:svg="http://www.w3.org/2000/svg"><defs
     id="defs2" />
    <g id="layer1" style="fill:#ff8800;fill-opacity:1"><path
       style="fill:#ff8800;stroke:none;stroke-width:0.240199;fill-opacity:1"
       d="m 50.403671,125.63963 c 4.480982,-1.05417 9.36251,-5.0773 13.439816,-7.28634 1.188467,-0.64381 3.841867,-1.60493 4.415219,-2.88963 0.750948,-1.68282 0.144714,-4.81694 0.144714,-6.65217 V 92.944987 37.412162 c 0,-7.698147 0.479997,-15.382591 0.479997,-23.078576 0,-2.254487 1.04494,-6.3872338 -0.773988,-8.0789412 C 67.1168,5.3315024 65.520104,5.2211583 64.323483,5.7851399 60.399536,7.635032 57.01078,10.014527 52.803643,11.366067 43.24361,14.437201 30.596749,14.777369 27.540391,26.353679 c -0.433908,1.642665 -0.700071,3.587997 -0.646064,5.28884 0.09504,2.980741 0.662146,5.997304 1.346616,8.894866 1.965574,8.320068 5.377125,16.303332 8.380927,24.280581 4.858733,12.903325 9.674743,26.015331 11.961186,39.666304 0.887753,5.30181 1.794936,10.72528 1.82086,16.10691 0.0081,1.7285 0.407757,3.33222 -2.45e-4,5.04845 m 0,-30.050227 C 49.268486,93.727735 48.994894,90.959508 48.38194,88.858158 47.155322,84.653288 45.711259,80.511403 44.323835,76.357257 40.306532,64.328987 33.56719,51.671355 32.665286,38.854573 c -0.467279,-6.643504 0.190078,-15.434518 8.378515,-16.68605 1.263346,-0.193043 2.644765,-0.01057 3.839953,0.451234 6.183995,2.390076 5.519681,12.762933 5.519917,18.158031 V 95.589403 M 68.40342,128.52444 c -4.711369,1.71719 -9.502906,4.93521 -13.679809,7.69286 -1.2307,0.81256 -3.607869,1.82946 -4.003625,3.36804 -0.426951,1.66117 -0.07628,3.81518 -0.07628,5.52683 0,3.76229 -0.239993,7.52458 -0.239993,11.29889 0,2.32708 0.350157,4.9667 -0.322792,7.21205 -1.081904,3.61083 -2.833645,7.32264 -6.877108,8.2506 -8.660997,1.98812 -10.285294,-10.75799 -8.904356,-16.42427 2.925804,-12.00806 14.44324,-19.80645 24.504141,-25.58379 3.549308,-2.03837 7.873811,-5.79369 11.999828,-4.5335 8.358123,2.55235 13.163087,9.15354 17.9997,15.9336 4.343193,6.08937 8.740379,12.13788 13.026954,18.27053 7.67582,10.98396 15.10299,21.15535 29.69239,21.15535 v 0.2404 c -9.17819,4.34888 -16.79664,13.28702 -23.75607,20.43417 -2.73308,2.80548 -5.31905,5.85378 -8.643464,8.00537 -3.328272,2.15401 -7.018911,2.98339 -10.799787,3.92577 -2.166448,0.53849 -4.624246,1.07459 -5.7791,3.21657 -2.293393,4.25511 2.195708,8.13039 5.53909,9.79398 7.174418,3.56996 17.027931,2.80548 24.239601,-0.28368 3.49602,-1.4977 6.88983,-3.45217 9.59963,-6.14708 1.11885,-1.11306 2.39828,-2.35353 2.10453,-4.08683 -0.36145,-2.13237 -4.46995,-2.80309 -5.85065,-4.56763 -3.95897,-5.06046 -0.44855,-11.78691 3.09573,-15.86652 4.06529,-4.68062 9.5929,-8.14481 14.81043,-11.39986 11.09024,-6.91876 23.34687,-12.39031 33.59952,-20.57359 9.72227,-7.76256 16.87416,-17.4123 16.31017,-30.29062 -0.0839,-1.94726 -0.60958,-3.96952 -1.33438,-5.76965 -5.21032,-12.9115 -19.52852,-8.1989 -30.09558,-7.47385 -2.73116,0.18727 -5.43832,-0.18751 -8.15988,-0.21996 -4.31994,-0.0514 -8.63508,-0.90824 -12.95982,-0.95969 -1.54558,-0.0185 -3.59754,-0.32118 -4.53833,1.21427 -0.7776,1.26884 -0.56399,3.24495 0.72478,4.10775 1.19279,0.79813 3.15837,0.72625 4.53354,1.07892 3.47275,0.89045 6.33111,2.73769 7.84549,6.099 1.86957,4.15798 1.56958,9.02949 1.76398,13.46249 0.36959,8.47418 0.2304,16.98921 0.2304,25.4826 4.71113,-1.71647 9.50387,-4.93545 13.67981,-7.69286 1.23118,-0.81256 3.60714,-1.82946 4.00314,-3.36803 0.42718,-1.66117 0.0769,-3.81518 0.0769,-5.52684 0,-3.76228 0.23999,-7.52457 0.23999,-11.29888 0,-2.32709 -0.35039,-4.96671 0.3216,-7.21206 1.08239,-3.61035 2.83437,-7.32264 6.87831,-8.25034 8.66148,-1.98765 10.28625,10.75533 8.90388,16.42401 -2.92556,12.00806 -14.44301,19.8067 -24.50366,25.58356 -3.46316,1.98812 -7.8959,5.78406 -11.99984,4.53397 -8.58228,-2.61797 -13.34622,-9.5151 -18.34175,-16.41463 -5.19136,-7.16878 -10.25289,-14.42892 -15.39674,-21.63617 -3.65011,-5.11455 -7.281,-10.51758 -12.82083,-13.77261 -4.907673,-2.88387 -10.267953,-3.53632 -15.839694,-3.53632 5.889031,-3.61035 11.770088,-6.97718 16.758878,-11.84844 5.623806,-5.49102 10.678636,-12.533331 17.320526,-16.83172 3.47036,-2.245829 7.34294,-3.054543 11.27985,-4.044997 2.17198,-0.546688 4.63674,-1.255144 5.52234,-3.57574 2.10956,-5.530447 -4.81338,-9.466311 -9.12228,-10.605341 -9.81468,-2.594403 -21.205627,-0.07091 -29.039552,6.389895 -1.575331,1.299128 -4.602386,3.742093 -3.316982,6.125674 0.697917,1.29409 2.421305,1.229663 3.556969,1.935234 2.416748,1.501069 3.757609,4.409933 3.758319,7.213253 0.003,8.172702 -7.977915,14.230582 -14.078109,18.349872 -13.863884,9.36196 -29.913415,15.89994 -42.479401,27.07404 -6.438874,5.72637 -12.326709,13.43366 -12.938458,22.3694 -0.172316,2.51941 -0.15696,5.22152 0.377515,7.69286 0.380636,1.75973 0.968865,3.48102 1.864056,5.04843 6.992777,12.24367 22.730802,4.79602 33.736566,5.55088 5.099688,0.34859 10.283616,0.51206 15.359783,1.11065 1.71574,0.20435 4.690726,0.56255 5.73854,-1.1443 0.778544,-1.26933 0.564237,-3.24543 -0.724537,-4.10847 -1.192314,-0.79814 -3.158348,-0.72602 -4.534006,-1.07941 -3.473958,-0.88948 -6.332076,-2.73818 -7.844776,-6.09899 -1.871248,-4.15895 -1.57078,-9.0295 -1.764449,-13.46251 -0.370557,-8.47416 -0.230642,-16.98918 -0.230642,-25.48259 M 98.882929,94.627798 h -0.23999 c 0,-4.956842 -1.002704,-8.857844 -5.5199,-11.539291 V 82.60771 c 1.575574,-0.5135 3.137225,-1.16451 4.799903,-1.329899 0.727677,-0.07256 1.458944,0.04537 2.159968,0.246642 6.36806,1.827301 0.9139,10.14688 -1.199981,13.103345 m 31.919541,72.360932 -0.23998,0.24041 0.23998,-0.24041 m 31.19956,6.01004 c -4.48073,1.05538 -9.36226,5.0773 -13.4398,7.28659 -1.18798,0.64428 -3.84234,1.60349 -4.41593,2.88963 -0.7512,1.68281 -0.144,4.81766 -0.144,6.65192 v 15.86652 55.53281 c 0,7.69767 -0.48,15.38332 -0.48,23.07858 0,2.25497 -1.04398,6.38747 0.77279,8.07991 0.99358,0.92314 2.58956,1.03373 3.78714,0.46878 3.92395,-1.85109 7.31271,-4.22867 11.51984,-5.58213 9.55908,-3.06993 22.2069,-3.4113 25.26445,-14.98665 0.432,-1.64194 0.6984,-3.58919 0.64559,-5.28884 -0.096,-2.98099 -0.66239,-5.99802 -1.34638,-8.89486 -1.96557,-8.32031 -5.37832,-16.30406 -8.38067,-24.2806 -4.85995,-12.90236 -9.67667,-26.01627 -11.96145,-39.66628 -0.88799,-5.30087 -1.79517,-10.72433 -1.82158,-16.10693 -0.01,-1.72849 -0.40799,-3.33197 0,-5.04845 m 0.24001,30.05024 c 3.69355,17.91955 12.70782,34.32938 16.71577,52.16719 1.44477,6.43316 2.40237,16.54205 -4.47594,20.30914 -0.89999,0.49284 -1.87438,0.73804 -2.87996,0.90632 -7.0823,1.17076 -8.80068,-5.89946 -9.31907,-11.35898 -1.36558,-14.36642 -0.28081,-29.317 -0.28081,-43.75313 v -12.5009 c 0,-1.7357 -0.43198,-4.16375 0.24001,-5.76964 m -48.47933,0.9616 c 0,4.95709 1.00272,8.85882 5.51993,11.53928 v 0.48081 c -2.44077,0.79573 -5.15273,2.05063 -7.67966,0.82458 -4.98088,-2.41844 -0.57599,-10.4118 2.15973,-12.84467 z"
       id="path302" /></g></svg>